<svg width="48" height="48" viewBox="0 0 48 48" fill="none" xmlns="http://www.w3.org/2000/svg">
<ellipse cx="24" cy="23.5" rx="22" ry="21.5" fill="white"/>
<path d="M25.9772 33.2469C25.7783 33.5453 25.5297 33.7688 25.2314 33.9174C24.933 34.066 24.6181 34.1416 24.2865 34.1443C23.955 34.147 23.64 34.0722 23.3416 33.9197C23.0432 33.7673 22.7946 33.5438 22.5956 33.2495L12.2989 17.0395C12.1994 16.8738 12.1251 16.6994 12.076 16.5164C12.0269 16.3334 12.0017 16.159 12.0003 15.9933C12.0002 15.4628 12.1911 14.9986 12.573 14.6007C12.9548 14.2028 13.4269 14.0039 13.9891 14.0038L34.577 14.0002C35.1406 14.0001 35.6134 14.199 35.9954 14.5967C36.3774 14.9945 36.5678 15.4586 36.5665 15.9891C36.5666 16.1548 36.5414 16.3286 36.491 16.5102C36.4407 16.6919 36.3665 16.8663 36.2684 17.0334L25.9772 33.2469Z" fill="#3F0F0B"/>
</svg>
